<svg width="64" height="75" viewBox="0 0 64 75" fill="none" xmlns="http://www.w3.org/2000/svg">
<path d="M40 0V15.1628H48L32 34.2944L16 15.1628H24.4103V0H40ZM53.5385 24.5251L62.8718 39.1791C63.3846 40.4003 64 42.7408 64 44.1655V72.3541C64 73.8806 62.7692 75 61.3333 75H2.76923C1.23077 75 0 73.8806 0 72.3541V44.1655C0 42.7408 0.512821 40.4003 1.02564 39.1791L10.359 24.5251C10.8718 23.2022 12.7179 22.0828 14.0513 22.0828H18.2564L22.5641 27.2727H13.9487L5.64103 42.3338C5.53846 42.3338 5.53846 42.4355 5.53846 42.5373C5.53846 42.7408 5.53846 42.8426 5.4359 42.9444H58.4615V42.5373C58.4615 42.4355 58.359 42.3338 58.359 42.232L50.0513 27.2727H41.4359L45.7436 22.0828H49.8462C51.2821 22.0828 53.0256 23.2022 53.5385 24.5251ZM24.5128 53.9349H39.5897C40.9231 53.9349 42.1538 52.7137 42.1538 51.289C42.1538 49.9661 40.9231 48.7449 39.5897 48.7449H24.5128C23.0769 48.7449 21.8462 49.9661 21.8462 51.289C21.8462 52.7137 23.0769 53.9349 24.5128 53.9349Z" fill="black"/>
</svg>
