<svg width="86" height="86" viewBox="0 0 86 86" fill="none" xmlns="http://www.w3.org/2000/svg">
<path d="M63.8282 36.6845C63.8282 36.6845 57.7813 31.7126 54.5563 26.8751C53.347 25.1282 49.4501 25.397 48.1063 28.7563L27.1438 36.8188L13.3032 29.4282C11.1532 28.0845 8.33133 29.0251 7.12195 31.5782C5.91258 33.997 6.58445 37.0876 8.86883 38.4313L11.0188 39.6407C9.13758 39.372 7.12195 40.3126 6.18133 42.1938C4.97195 44.6126 5.64383 47.7032 7.9282 49.047L12.7657 51.8688C10.6157 50.5251 7.79383 51.4657 6.58445 54.0188C5.37508 56.4376 6.04695 59.5282 8.33133 60.872C8.33133 60.872 32.6532 75.922 40.9845 80.3563C47.5688 83.9845 60.6032 85.7313 68.8001 75.7876C71.4876 72.2938 63.8282 36.6845 63.8282 36.6845Z" fill="#E0A372"/>
<path d="M73.9064 36.6844C69.6064 33.7282 66.6502 29.8313 64.5002 23.9188C63.6939 21.9032 60.7377 21.5 58.9908 24.8594C56.4377 29.6969 58.8564 33.5938 60.2002 35.3407L60.872 36.1469C60.872 36.1469 61.2752 37.625 61.947 39.3719C58.3189 38.5657 54.2877 40.5813 51.4658 44.3438C48.5095 48.2407 41.522 54.9594 38.5658 58.8563C34.9377 63.5594 35.8783 70.2782 39.9095 73.2344C39.9095 73.2344 61.0064 88.6875 74.9814 69.7407C86.0001 54.9594 78.2064 39.6407 73.9064 36.6844Z" fill="#FFE1BD"/>
<path d="M66.7844 42.3282C68.9344 43.9407 69.4719 47.0313 67.8594 49.45C66.3813 51.8688 63.2906 52.5407 61.1406 50.9282L27.6813 26.875C25.5313 25.2625 24.9938 22.1719 26.6063 19.7532C28.0844 17.3344 31.175 16.6625 33.325 18.275L66.7844 42.3282Z" fill="#FFE1BD"/>
<path d="M49.4499 39.6406L28.0843 24.1875C26.8749 23.3812 26.0687 22.0375 26.4718 20.0219C24.9937 22.7094 25.9343 25.3969 27.6812 26.7406L49.0468 42.1937C51.1968 43.8062 51.5999 41.2531 49.4499 39.6406Z" fill="#E6B796"/>
<path d="M55.9 47.0313C58.05 48.6438 58.5875 51.7344 56.975 54.1531C55.4969 56.5719 52.4062 57.2438 50.2562 55.6313L16.7969 31.4438C14.6469 29.8313 14.1094 26.7406 15.7219 24.3219C17.2 21.9031 20.2906 21.2313 22.4406 22.8438L55.9 47.0313Z" fill="#FFE1BD"/>
<path d="M42.9999 47.5687L17.1999 28.8906C15.9906 28.0843 15.1843 26.4718 15.5874 24.725C14.1093 27.4125 14.9156 30.3687 16.7968 31.7125L42.7312 50.1218C44.7468 51.7343 45.1499 49.0468 42.9999 47.5687Z" fill="#E6B796"/>
<path d="M53.75 57.7814C55.9 59.3939 56.4375 62.4845 54.825 64.9033C53.3469 67.322 50.2562 67.9939 48.1062 66.3814L14.6469 42.1939C12.4969 40.5814 11.9594 37.4908 13.5719 35.072C15.05 32.6533 18.1406 31.9814 20.2906 33.5939L53.75 57.7814Z" fill="#FFE1BD"/>
<path d="M37.8939 56.1688L15.0501 39.775C13.8407 38.9688 13.0345 37.0875 13.572 35.2063C11.8251 37.7594 12.497 41.1188 14.3782 42.4625L37.4907 58.7219C39.6407 60.3344 40.0439 57.7813 37.8939 56.1688Z" fill="#E6B796"/>
<path d="M52.8093 69.875C54.9593 71.4875 39.6406 73.1 37.4906 71.4875L13.8406 54.4219C11.6906 52.8094 11.1531 49.7188 12.7656 47.3C14.2437 44.8813 17.3343 44.2094 19.4843 45.8219L52.8093 69.875Z" fill="#FFE1BD"/>
<path d="M50.7938 2.6875L54.8251 19.0812L62.7532 3.89688L50.7938 2.6875Z" fill="#42ADE2"/>
<path d="M70.6814 7.52502L64.6345 21.0969L78.7439 17.4688L70.6814 7.52502Z" fill="#42ADE2"/>
<path d="M40.5813 4.70312L44.3438 19.4844L31.9813 11.5563L40.5813 4.70312Z" fill="#42ADE2"/>
</svg>
