<svg width="92" height="92" viewBox="0 0 92 92" fill="none" xmlns="http://www.w3.org/2000/svg">
<path d="M51.4805 37.8242C49.4051 37.8242 47.7969 39.4324 47.7969 41.418C47.7969 43.4035 49.4051 45.0117 51.4805 45.0117C53.3762 45.0117 54.9844 43.4035 54.9844 41.418C54.9844 39.4324 53.3762 37.8242 51.4805 37.8242ZM26.3242 37.8242C24.2488 37.8242 22.6406 39.4324 22.6406 41.418C22.6406 43.4035 24.2488 45.0117 26.3242 45.0117C28.2199 45.0117 29.8281 43.4035 29.8281 41.418C29.8281 39.4324 28.2199 37.8242 26.3242 37.8242Z" fill="black"/>
<path d="M80.3202 30.9961C75.9987 25.0664 69.9612 21.1043 63.3397 19.3164V19.3254C61.8034 17.6184 60.0694 16.0461 58.1288 14.6445C43.4214 3.95312 22.7753 7.21444 12.039 21.9219C3.38701 33.8711 3.75537 49.9441 12.578 61.3633L12.6499 73.2765C12.6499 73.564 12.6948 73.8515 12.7847 74.1211C13.2608 75.6394 14.878 76.475 16.3874 75.9988L27.7616 72.414C30.7714 73.4832 33.88 74.0941 36.9706 74.2648L36.9257 74.3008C44.9308 80.1316 55.4245 81.8836 65.0468 78.7031L76.4659 82.4226C76.7534 82.5125 77.0499 82.5664 77.3554 82.5664C78.9456 82.5664 80.2304 81.2816 80.2304 79.6914V67.6523C88.1456 56.907 88.3522 42.0558 80.3202 30.9961ZM29.0194 66.0351L27.9413 65.5859L19.0468 68.3711L18.9569 59.0273L18.2382 58.2187C10.6374 48.9469 10.1343 35.5871 17.2499 25.7851C25.9108 13.9078 42.514 11.2844 54.3554 19.8555C66.2327 28.4894 68.8651 45.0656 60.285 56.8711C53.0886 66.7449 40.205 70.3926 29.0194 66.0351ZM74.3905 64.5078L73.6718 65.4062L73.7616 74.75L64.9569 71.7851L63.8788 72.2344C58.8475 74.1031 53.4839 74.2558 48.5155 72.8633L48.4976 72.8543C55.137 70.8148 61.1565 66.682 65.496 60.7344C72.36 51.2738 73.4741 39.3875 69.4851 29.2531L69.539 29.2891C71.6054 30.7715 73.5011 32.6223 75.1093 34.8594C81.6319 43.8078 81.2636 55.9906 74.3905 64.5078Z" fill="black"/>
<path d="M38.9023 37.8242C36.827 37.8242 35.2188 39.4324 35.2188 41.418C35.2188 43.4035 36.827 45.0117 38.9023 45.0117C40.798 45.0117 42.4062 43.4035 42.4062 41.418C42.4062 39.4324 40.798 37.8242 38.9023 37.8242Z" fill="black"/>
</svg>
