<svg width="72" height="72" viewBox="0 0 72 72" fill="none" xmlns="http://www.w3.org/2000/svg">
<path fill-rule="evenodd" clip-rule="evenodd" d="M2.25 36.0001C2.84674 36.0001 3.41903 36.2372 3.84099 36.6591C4.26295 37.0811 4.5 37.6534 4.5 38.2501V54.0001C4.5 55.1936 4.97411 56.3382 5.81802 57.1821C6.66193 58.026 7.80653 58.5001 9 58.5001H63C64.1935 58.5001 65.3381 58.026 66.182 57.1821C67.0259 56.3382 67.5 55.1936 67.5 54.0001V38.2501C67.5 37.6534 67.7371 37.0811 68.159 36.6591C68.581 36.2372 69.1533 36.0001 69.75 36.0001C70.3467 36.0001 70.919 36.2372 71.341 36.6591C71.7629 37.0811 72 37.6534 72 38.2501V54.0001C72 56.3871 71.0518 58.6763 69.364 60.3641C67.6761 62.0519 65.3869 63.0001 63 63.0001H9C6.61305 63.0001 4.32387 62.0519 2.63604 60.3641C0.948212 58.6763 0 56.3871 0 54.0001V38.2501C0 37.6534 0.237053 37.0811 0.65901 36.6591C1.08097 36.2372 1.65326 36.0001 2.25 36.0001ZM22.5 21.8431C22.9219 22.2649 23.4941 22.5019 24.0907 22.5019C24.6874 22.5019 25.2596 22.2649 25.6815 21.8431L36 11.5201L46.3185 21.8386C46.5261 22.0535 46.7743 22.2249 47.0488 22.3428C47.3233 22.4608 47.6186 22.5228 47.9173 22.5254C48.2161 22.528 48.5124 22.4711 48.7889 22.358C49.0654 22.2448 49.3166 22.0778 49.5279 21.8665C49.7392 21.6552 49.9062 21.404 50.0193 21.1275C50.1325 20.851 50.1894 20.5547 50.1868 20.256C50.1842 19.9572 50.1222 19.662 50.0042 19.3875C49.8863 19.1129 49.7149 18.8647 49.5 18.6571L37.593 6.75012C37.384 6.54058 37.1357 6.37434 36.8624 6.26091C36.589 6.14748 36.296 6.0891 36 6.0891C35.704 6.0891 35.411 6.14748 35.1376 6.26091C34.8643 6.37434 34.616 6.54058 34.407 6.75012L22.5 18.6571C22.2905 18.8661 22.1242 19.1144 22.0108 19.3878C21.8974 19.6611 21.839 19.9542 21.839 20.2501C21.839 20.5461 21.8974 20.8391 22.0108 21.1125C22.1242 21.3858 22.2905 21.6341 22.5 21.8431Z" fill="black"/>
<path fill-rule="evenodd" clip-rule="evenodd" d="M36 9C36.5967 9 37.169 9.23705 37.591 9.65901C38.0129 10.081 38.25 10.6533 38.25 11.25V47.25C38.25 47.8467 38.0129 48.419 37.591 48.841C37.169 49.2629 36.5967 49.5 36 49.5C35.4033 49.5 34.831 49.2629 34.409 48.841C33.9871 48.419 33.75 47.8467 33.75 47.25V11.25C33.75 10.6533 33.9871 10.081 34.409 9.65901C34.831 9.23705 35.4033 9 36 9Z" fill="black"/>
</svg>
